# xmcd
#
# Track frame offsets: 
#        150
#        16689
#        31742
#        53099
#        68585
#        83709
#        98782
#        118663
#        135361
#        148777
#        165141
#        183594
#        197744
#        214262
#
# Disc length: 3027 seconds
#
# Revision: 0
# Processed by: cddbd v1.5.2PL0 Copyright (c) Steve Scherf et al.
# Submitted via: ExactAudioCopy v1.0b3
#
DISCID=b00bd10e
DTITLE=Eli Young Band - Life at Best
DYEAR=2011
DGENRE=Country
TTITLE0=Even If It Breaks Your Heart
TTITLE1=Crazy Girl
TTITLE2=Every Other Memory
TTITLE3=On My Way
TTITLE4=Skeletons
TTITLE5=I Love You
TTITLE6=The Fight
TTITLE7=My Old Man's Son
TTITLE8=Recover
TTITLE9=The Falling
TTITLE10=War on a Desperate Man
TTITLE11=Say Goodnight
TTITLE12=How Quickly You Forget
TTITLE13=Life at Best
EXTD=
EXTT0=
EXTT1=
EXTT2=
EXTT3=
EXTT4=
EXTT5=
EXTT6=
EXTT7=
EXTT8=
EXTT9=
EXTT10=
EXTT11=
EXTT12=
EXTT13=
PLAYORDER=
